<svg width="37" height="36" viewBox="0 0 37 36" fill="none" xmlns="http://www.w3.org/2000/svg">
<path d="M28.9049 4.42847C29.688 4.42847 30.4389 4.73952 30.9926 5.2932C31.5463 5.84688 31.8573 6.59783 31.8573 7.38085V28.0475C31.8573 28.8305 31.5463 29.5815 30.9926 30.1352C30.4389 30.6888 29.688 30.9999 28.9049 30.9999H8.23827C7.45525 30.9999 6.7043 30.6888 6.15062 30.1352C5.59694 29.5815 5.28589 28.8305 5.28589 28.0475V7.38085C5.28589 6.59783 5.59694 5.84688 6.15062 5.2932C6.7043 4.73952 7.45525 4.42847 8.23827 4.42847H28.9049ZM28.1668 27.3094V19.4856C28.1668 18.2093 27.6598 16.9852 26.7573 16.0827C25.8548 15.1802 24.6308 14.6732 23.3545 14.6732C22.0997 14.6732 20.6383 15.4408 19.9297 16.5923V14.9537H15.8111V27.3094H19.9297V20.0318C19.9297 18.8951 20.8449 17.9651 21.9816 17.9651C22.5297 17.9651 23.0554 18.1829 23.443 18.5704C23.8305 18.958 24.0483 19.4837 24.0483 20.0318V27.3094H28.1668ZM11.0135 12.6361C11.6712 12.6361 12.302 12.3748 12.7671 11.9097C13.2322 11.4446 13.4935 10.8138 13.4935 10.1561C13.4935 8.78323 12.3864 7.66132 11.0135 7.66132C10.3519 7.66132 9.7173 7.92416 9.24944 8.39202C8.78159 8.85988 8.51875 9.49443 8.51875 10.1561C8.51875 11.5289 9.64065 12.6361 11.0135 12.6361ZM13.0654 27.3094V14.9537H8.97636V27.3094H13.0654Z" fill="#40826A"/>
</svg>
