<svg width="58" height="51" viewBox="0 0 58 51" fill="none" xmlns="http://www.w3.org/2000/svg">
<mask id="mask0_1_33" style="mask-type:luminance" maskUnits="userSpaceOnUse" x="0" y="0" width="58" height="51">
<path d="M58 0H0V50.7502H58V0Z" fill="white"/>
</mask>
<g mask="url(#mask0_1_33)">
<path d="M43.502 50.7502V47.1251C43.502 46.6491 43.4082 46.1777 43.2261 45.7378C43.0439 45.2982 42.7769 44.8985 42.4404 44.5617C42.1035 44.2251 41.7039 43.9582 41.2643 43.776C40.8244 43.5939 40.353 43.5001 39.877 43.5001H25.3759C20.5689 43.5001 15.9587 41.5905 12.5595 38.1914C9.1604 34.7922 7.25077 30.1822 7.25069 25.3751C7.25069 22.9948 7.71952 20.6379 8.6304 18.4389C9.54129 16.2398 10.8764 14.2418 12.5595 12.5587C14.2426 10.8756 16.2407 9.54057 18.4397 8.62971C20.6388 7.71885 22.9957 7.25007 25.3759 7.2501H39.8759C40.3519 7.25024 40.8236 7.15658 41.2635 6.97448C41.7033 6.79236 42.1033 6.52536 42.4398 6.18874C42.7767 5.85209 43.0436 5.45242 43.2261 5.01254C43.4082 4.57266 43.502 4.1012 43.502 3.62505V0H25.3768C22.0445 -1.91256e-10 18.7448 0.656348 15.6662 1.93157C12.5875 3.20679 9.79023 5.07591 7.43398 7.4322C5.0777 9.78851 3.2086 12.5858 1.93342 15.6645C0.658231 18.7431 0.00191742 22.0428 0.00195313 25.3751C0.00195312 32.1048 2.67535 38.5592 7.43403 43.3179C12.1927 48.0766 18.6469 50.7502 25.3768 50.7502H43.502Z" fill="url(#paint0_linear_1_33)"/>
<path d="M14.499 25.3751C14.499 28.2593 15.6447 31.0253 17.6841 33.0645C19.7235 35.104 22.4895 36.2497 25.3736 36.2497H43.5002C45.4232 36.2497 47.2669 37.0136 48.6265 38.3732C49.9861 39.7328 50.7501 41.5769 50.7501 43.4998V50.7499H58.0002V43.5001C58.0002 39.6545 56.4726 35.9664 53.7534 33.2469C51.0339 30.5277 47.3458 29.0001 43.5002 29.0001H25.3742C24.4128 29.0001 23.4907 28.6182 22.8109 27.9385C22.131 27.2586 21.7491 26.3365 21.7491 25.3751C21.7491 24.4137 22.131 23.4916 22.8109 22.8118C23.4907 22.1319 24.4128 21.75 25.3742 21.75H43.5002C47.3458 21.75 51.0339 20.2224 53.7534 17.5031C56.4726 14.7838 58.0002 11.0957 58.0002 7.2501V0H50.749V7.2501C50.749 9.17268 49.9853 11.0165 48.626 12.3761C47.2667 13.7357 45.4229 14.4996 43.5002 14.4999H25.3742C23.946 14.4998 22.5318 14.7811 21.2124 15.3276C19.8929 15.8741 18.694 16.6752 17.6841 17.685C16.6743 18.6949 15.8732 19.8938 15.3267 21.2133C14.7802 22.5327 14.499 23.9469 14.499 25.3751Z" fill="url(#paint1_linear_1_33)"/>
</g>
<defs>
<linearGradient id="paint0_linear_1_33" x1="6.57045" y1="25.3751" x2="62.3811" y2="25.3751" gradientUnits="userSpaceOnUse">
<stop stop-color="#0B996E"/>
<stop offset="1" stop-color="#0B996F"/>
</linearGradient>
<linearGradient id="paint1_linear_1_33" x1="6.53832" y1="25.3749" x2="62.3938" y2="25.3749" gradientUnits="userSpaceOnUse">
<stop stop-color="#0B996E"/>
<stop offset="1" stop-color="#40C9A0"/>
</linearGradient>
</defs>
</svg>
