<svg width="36" height="36" viewBox="0 0 36 36" fill="none" xmlns="http://www.w3.org/2000/svg">
<path d="M33.5838 8.85704C32.4471 9.37371 31.2219 9.71323 29.9524 9.87562C31.2514 9.09323 32.2552 7.85323 32.7276 6.36228C31.5024 7.10038 30.1443 7.61704 28.7124 7.91228C27.5462 6.64276 25.9076 5.90466 24.0476 5.90466C20.5786 5.90466 17.7443 8.73895 17.7443 12.2375C17.7443 12.7394 17.8033 13.2266 17.9067 13.6842C12.6514 13.4185 7.9719 10.8942 4.85714 7.07085C4.31095 8.00085 4.00095 9.09323 4.00095 10.2447C4.00095 12.4442 5.10809 14.3928 6.82048 15.4999C5.77238 15.4999 4.79809 15.2047 3.9419 14.7618V14.8061C3.9419 17.8766 6.12667 20.4451 9.02 21.0209C8.09107 21.2751 7.11585 21.3104 6.17095 21.1242C6.57189 22.3826 7.35713 23.4837 8.41626 24.2728C9.4754 25.0619 10.7552 25.4992 12.0757 25.5232C9.83726 27.2953 7.06257 28.2532 4.20762 28.2394C3.70571 28.2394 3.20381 28.2099 2.7019 28.1509C5.50667 29.9518 8.84286 30.9999 12.4152 30.9999C24.0476 30.9999 30.4395 21.3456 30.4395 12.9756C30.4395 12.6951 30.4395 12.4294 30.4248 12.1489C31.6648 11.2632 32.7276 10.1413 33.5838 8.85704Z" fill="#40826A"/>
</svg>
